<svg xmlns="http://www.w3.org/2000/svg" xmlns:xlink="http://www.w3.org/1999/xlink" viewBox="0 0 540.2 429.29"><defs><style>.cls-1,.cls-2,.cls-26,.cls-28{fill:none;}.cls-2{clip-path:url(#clip-path);}.cls-3{isolation:isolate;}.cls-4{clip-path:url(#clip-path-2);}.cls-5{fill:#fff0dd;}.cls-23,.cls-6,.cls-8{fill:#bf1e2e;}.cls-7{clip-path:url(#clip-path-3);}.cls-8{opacity:0.4;}.cls-11,.cls-19,.cls-21,.cls-23,.cls-25,.cls-26,.cls-8{mix-blend-mode:multiply;}.cls-9{fill:#e8f7fa;}.cls-10{fill:#feb988;}.cls-12{fill:#ffb988;}.cls-13{fill:#823f1e;}.cls-14{clip-path:url(#clip-path-4);}.cls-15,.cls-19,.cls-25{fill:#ea421b;}.cls-16{fill:#ff6f44;}.cls-17{fill:#f8bb13;}.cls-18{fill:#ffd1a0;}.cls-19,.cls-21,.cls-23{opacity:0.5;}.cls-20{fill:#fff;}.cls-22{clip-path:url(#clip-path-5);}.cls-24{clip-path:url(#clip-path-6);}.cls-25{opacity:0.6;}.cls-26{stroke:#c4c4c4;stroke-linecap:round;stroke-linejoin:round;}.cls-26,.cls-28{stroke-width:3px;}.cls-27{fill:#c9e9f6;}.cls-28{stroke:#fff0dd;stroke-miterlimit:10;}</style><clipPath id="clip-path"><polyline class="cls-1" points="391.04 170.98 391.04 170.91 336.4 164.47 336.4 164.46 336.34 164.46 336.28 164.46 336.28 164.47 281.64 170.91 281.64 170.91 281.64 170.91"/></clipPath><clipPath id="clip-path-2" transform="translate(6.63 -8.04)"><rect class="cls-1" x="-173.25" y="-72.02" width="635.75" height="393"/></clipPath><clipPath id="clip-path-3" transform="translate(6.63 -8.04)"><rect class="cls-1" x="266.06" y="135.67" width="144.5" height="165.97"/></clipPath><clipPath id="clip-path-4" transform="translate(6.63 -8.04)"><polyline class="cls-2" points="283.33 214.25 287.11 331.48 336.28 331.48 336.4 331.48 385.56 331.48 389.34 214.42"/></clipPath><clipPath id="clip-path-5" transform="translate(6.63 -8.04)"><path class="cls-1" d="M394.38,81.14c-2.16-1.71-8.37-1.46-11.52.62-.12-.85-.25-1.7-.4-2.55,0-1.41.05-2.79.1-4.07.11-3,.16-6,.19-9a15.49,15.49,0,0,0-.69-4.17c-.49-1.84-1.79-2.26-2.76-3.65a2.64,2.64,0,0,0-4.18-.5c-8.5-15.64-22.57-25.88-38.5-25.88-16.11,0-30.32,10.47-38.79,26.41l0,0a2.67,2.67,0,0,0-4.61,0c-1.67,2.39-2.94,3.21-3.3,6.43a59.15,59.15,0,0,0,0,8.83c.1,2.58,0,5.56.22,8.5-3-2.38-9.69-2.74-11.95-.94-8.35,6.63,1.61,24,7.15,29.17a12.09,12.09,0,0,0,7.26,3.48c6.66,23.07,23.87,39.51,44.07,39.51s37.44-16.47,44.08-39.58a12.61,12.61,0,0,0,6.53-3.41C392.77,105.16,402.73,87.77,394.38,81.14Z"/></clipPath><clipPath id="clip-path-6" transform="translate(6.63 -8.04)"><path class="cls-1" d="M379.81,32.5c-15.65-23.78-70.28-23.32-85.63,0-5.76,8.75-9.61,24.44-4.31,34.05,1.22,2.22,4.47,3.81,6.95,2.83,5.73-2.26,13.42-3.57,19.93-4.41,3.92-.5,7.88-.73,11.83-.88,2.76-.11,5.81.07,8.42-.81,2.6.88,5.65.7,8.41.81,3.95.15,7.91.38,11.83.88,3.26.42,6.48,1.11,9.69,1.78a67.13,67.13,0,0,1,10.24,2.63c2.49,1,5.73-.61,7-2.83C389.42,56.94,385.58,41.25,379.81,32.5Z"/></clipPath></defs><title>sender-vector</title><g class="cls-3"><g id="OBJECTS"><g class="cls-4"><path class="cls-5" d="M355,63.48c21-9,46-18,67-4,22,15,20,42,18,66-1,25,6,38,29,50,27,15,52,28,59,61,21,96-69,213-171,183-52-15-90-64-82-118,7-45,39-72,67-104,22-25,17-50,12-81-2-14-8-39,10-45a3.49,3.49,0,0,1-1,2" transform="translate(6.63 -8.04)"/><path class="cls-5" d="M356.26,65.64c17.17-7.35,37.33-15.11,55.93-8.38A38.18,38.18,0,0,1,432.1,73.8c4,6.85,5.7,14.76,6.28,22.6a160.54,160.54,0,0,1-.52,24.61c-.62,7.9-.72,15.86,1,23.65a41.44,41.44,0,0,0,8.66,17.86c4.86,5.81,11.29,10.21,17.88,13.85,14.17,7.83,29.06,15.33,40.95,26.53a65.31,65.31,0,0,1,14.09,18.86c3.66,7.49,5.51,15.69,6.74,23.89,4.51,30-1.7,61.35-14.7,88.6S479.3,386,453.64,402.35c-25.27,16.06-55.55,23.16-85.15,17.37-32.53-6.36-62.21-26.26-78.82-55.17a98.18,98.18,0,0,1-13.22-46.7c-.36-17.87,4.52-35.51,12.9-51.23s20-29.47,31.93-42.64c6.13-6.76,12.38-13.4,18.46-20.19,6.33-7.06,12.2-14.26,15.93-23,6.88-16.18,5.51-33.75,3-50.72-1.15-7.8-2.52-15.57-3.66-23.37-.95-6.5-1.76-13.44-.49-20,1.15-5.91,4.28-10.78,10.15-12.81l-3.07-3.07a1.35,1.35,0,0,1-.36.89c-2.2,2.34,1.33,5.89,3.54,3.54a6,6,0,0,0,1.64-3.11c.26-1.71-1.08-3.76-3.07-3.07a20.2,20.2,0,0,0-13.22,14.42c-1.82,6.81-1.31,14.09-.42,21,2.13,16.61,6.25,33.12,6.1,50A62.74,62.74,0,0,1,351,179.17c-3.91,8.89-10.14,16-16.58,23.13C322,216,309.07,229.2,298,244s-19.9,31.29-24,49.4a101.18,101.18,0,0,0,1.89,52,110.92,110.92,0,0,0,25.44,43.11,122.8,122.8,0,0,0,42.36,29,117.81,117.81,0,0,0,92.95-.51,143.82,143.82,0,0,0,38.6-24.68,171.39,171.39,0,0,0,30.54-35.79,178.84,178.84,0,0,0,20.2-43A160.9,160.9,0,0,0,533.56,267a141.76,141.76,0,0,0-1.69-23.37c-1.32-8.52-3.42-16.88-7.25-24.64-7.37-14.95-20.39-25.6-34.31-34.21-7.39-4.57-15.06-8.66-22.65-12.88-6.49-3.61-12.85-7.95-17.42-13.91A38.62,38.62,0,0,1,443,139.8c-1.16-8.21-.24-16.36.27-24.57,1-16.32.69-34.53-9.66-48.13a43.91,43.91,0,0,0-23.14-15.63c-9.56-2.66-19.67-2-29.25.21s-18.56,5.82-27.49,9.64a2.52,2.52,0,0,0-.9,3.42,2.57,2.57,0,0,0,3.42.9Z" transform="translate(6.63 -8.04)"/><path class="cls-5" d="M337.79,219.39c-12.49-28.38-48.53-38.15-66.72-62.93-19.54-26.63-50.65-54-86.18-37.42-40.29,18.84-24.57,71.17-68.09,87.19-19,7-41.74,12.6-47.88,34.61-4,14.52,3.84,37.63-13.12,46.17-20.44,10.29-34-2.44-48.07,22.25C-14.82,348.91-13.81,401,32.57,422.14c21.93,10,46.69,12.94,70.52,14.3,23.17,1.33,46.48.84,69.67.63,21-.18,42-1.3,62.65-4.84s41.36-10,59-21.69c18.27-12.16,29.61-29.64,36.91-50.06,8.61-24.05,11.88-50.05,13.14-75.45C345.5,263.48,346.67,239.57,337.79,219.39Z" transform="translate(6.63 -8.04)"/><rect class="cls-6" x="272.69" y="127.63" width="144.5" height="165.97"/><g class="cls-7"><rect class="cls-8" x="275.37" y="55.8" width="125.86" height="125.86" transform="translate(21.76 265.95) rotate(-45)"/></g><path class="cls-9" d="M378.55,112.11c1.33,3,.74,6.61-.21,9.66a33,33,0,0,1-4.62,9.29,32,32,0,0,1-15.29,11.42,2.55,2.55,0,0,0-1.75,3.07,2.52,2.52,0,0,0,3.07,1.75,37.63,37.63,0,0,0,18.5-14c4.59-6.63,8-15.87,4.62-23.68a2.52,2.52,0,0,0-3.42-.9,2.57,2.57,0,0,0-.9,3.42Z" transform="translate(6.63 -8.04)"/><path class="cls-9" d="M290.46,109.59c-3.41,7.81,0,17,4.62,23.68a37.63,37.63,0,0,0,18.5,14,2.5,2.5,0,1,0,1.32-4.82,32,32,0,0,1-15.29-11.42,33.22,33.22,0,0,1-4.56-9.08c-1-3.11-1.63-6.76-.27-9.87a2.58,2.58,0,0,0-.9-3.42,2.51,2.51,0,0,0-3.42.9Z" transform="translate(6.63 -8.04)"/><path class="cls-10" d="M383.63,92.62c0,33.51-21.05,60.68-47,60.68s-47-27.17-47-60.68,21-60.68,47-60.68S383.63,59.11,383.63,92.62Z" transform="translate(6.63 -8.04)"/><path class="cls-10" d="M291.38,83.74c-1.38-3.82-10.52-4.76-13.24-2.6-8.35,6.63,1.61,24,7.15,29.17,2.6,2.41,6.22,4.25,9.84,3.2,1.61-.47,5.81-3.2,5-5.48Z" transform="translate(6.63 -8.04)"/><path class="cls-10" d="M381.14,83.74c1.38-3.82,10.52-4.76,13.24-2.6,8.35,6.63-1.61,24-7.15,29.17-2.6,2.42-6.23,4.25-9.84,3.2-1.61-.47-5.81-3.2-5-5.48C372.4,108,381.11,83.84,381.14,83.74Z" transform="translate(6.63 -8.04)"/><g class="cls-11"><path class="cls-12" d="M280.22,85.52c-.33-.12-.56.42-.24.57a20.2,20.2,0,0,1,6.69,5.56A7.76,7.76,0,0,0,284.25,97c-.19,2.08,1,5.18,3.47,4.86a.53.53,0,0,0,.45-.79c-.71-1.62-1.85-2.59-1.95-4.52a9.06,9.06,0,0,1,1-4.21l.54.74c1.93,2.77,2.6,6.15,4.43,8.9a.52.52,0,0,0,1-.26c.38-3.3-1.79-7.38-3.79-9.89A19.24,19.24,0,0,0,280.22,85.52Z" transform="translate(6.63 -8.04)"/><path class="cls-12" d="M392.3,85.52a19.19,19.19,0,0,0-9.16,6.35c-2,2.5-4.17,6.58-3.79,9.88a.53.53,0,0,0,1,.27c1.65-2.49,2.32-5.57,3.93-8.15.32-.51.67-1,1-1.49a10.24,10.24,0,0,1,1,4c.07,2-1.23,3.07-1.95,4.74-.12.27-.06.72.31.77,2.56.35,3.61-2.48,3.62-4.65a7.39,7.39,0,0,0-2.45-5.58,20,20,0,0,1,6.71-5.55A.32.32,0,0,0,392.3,85.52Z" transform="translate(6.63 -8.04)"/></g><rect class="cls-10" x="335.85" y="129.61" width="15.27" height="35.19"/><path class="cls-13" d="M298.05,91.92c3.27-4.48,2.81-11.44,3-16.78.12-3,.17-6,.2-9a16.31,16.31,0,0,0-.69-4.17c-.5-1.84-1.8-2.26-2.77-3.65a2.67,2.67,0,0,0-4.61,0c-1.67,2.39-2.94,3.21-3.3,6.43a59.15,59.15,0,0,0,0,8.83c.22,5.75-.45,13.51,3.07,18.34a3,3,0,0,0,5.11,0Z" transform="translate(6.63 -8.04)"/><path class="cls-13" d="M379.55,91.92c3.26-4.48,2.8-11.44,3-16.78.11-3,.16-6,.19-9a15.49,15.49,0,0,0-.69-4.17c-.49-1.84-1.79-2.26-2.76-3.65a2.68,2.68,0,0,0-4.62,0c-1.67,2.39-2.94,3.21-3.3,6.43a60.52,60.52,0,0,0,0,8.83c.22,5.75-.45,13.51,3.07,18.34a3,3,0,0,0,5.12,0Z" transform="translate(6.63 -8.04)"/><path class="cls-13" d="M312.55,95.79a6.48,6.48,0,0,1,4.69-3.87c2.45-.32,2.41,2.77,3.69,4.1.93,1,3,.61,3.25-.86.63-4-2.55-7.25-6.36-7.62-3.66-.35-7.5,3-8.84,6.17-1,2.4,2.45,4.53,3.57,2.08Z" transform="translate(6.63 -8.04)"/><path class="cls-13" d="M361.44,95.79a6.44,6.44,0,0,0-4.69-3.87c-2.44-.32-2.41,2.77-3.69,4.1-.93,1-3,.61-3.24-.86-.63-4,2.55-7.25,6.35-7.62s7.5,3,8.84,6.17c1,2.4-2.45,4.53-3.57,2.08Z" transform="translate(6.63 -8.04)"/><path class="cls-13" d="M324.89,72.92c-7.41-3.24-14.56.26-19.54,6-1.88,2.19.71,6.26,3.29,4.27,2.92-2.24,8.06-4.31,11.49-2.14C325.39,84.4,330.37,75.32,324.89,72.92Z" transform="translate(6.63 -8.04)"/><path class="cls-13" d="M349.1,72.92c7.41-3.24,14.56.26,19.54,6,1.89,2.19-.71,6.26-3.29,4.27-2.91-2.24-8.06-4.31-11.48-2.14C348.6,84.4,343.63,75.32,349.1,72.92Z" transform="translate(6.63 -8.04)"/><g class="cls-14"><path class="cls-1" d="M302.69,158.74C302,163.06,316.4,319,316.4,319l39,2.89,18-170.33Z" transform="translate(6.63 -8.04)"/><path class="cls-1" d="M361.15,167.76c0,8.17-11,14.79-24.54,14.79s-24.54-6.62-24.54-14.79,11-14.8,24.54-14.8S361.15,159.59,361.15,167.76Z" transform="translate(6.63 -8.04)"/></g><polygon class="cls-15" points="398.07 162.94 398.07 162.87 343.44 156.43 343.44 156.42 343.37 156.42 343.31 156.42 343.31 156.43 288.67 162.87 288.67 162.87 288.67 162.87 290.36 206.21 294.15 323.44 343.31 323.44 343.44 323.44 392.6 323.44 396.38 206.38 398.07 162.94"/><rect class="cls-15" x="322.29" y="149.92" width="18" height="11.54" rx="3.52"/><rect class="cls-15" x="346.29" y="149.92" width="18" height="11.54" rx="3.52"/><rect class="cls-16" x="355.46" y="202.61" width="26.16" height="6.11"/><path class="cls-15" d="M339.08,168.48c-11.48-1.27-23.31.56-34.75,1.46-7,.55-13.94.95-20.93.91-7.27,0-17.35.67-22.93-5.17-3.62-3.79-3.35-10.88-3.41-15.76-.23-17.08.3-34.36,1-51.44a16.19,16.19,0,0,0-2.65-9.43l-2.85,1.43-9.5,1.5-15-1.5-1.92-3.2a19.41,19.41,0,0,0-4.08,11.2c-.32,7.44-.59,14.87-.57,22.31,0,10.91-.72,21.86-.37,32.75.35,10.72,2.51,22.85,9.06,31.67,6.22,8.36,13.76,13.37,23.34,17.19,14.18,5.66,31.2,4.87,46.15,3.88,13-.85,26.38-3.23,39.39-1.8,9.77,1.08,18-9,18-18C357.08,175.85,348.82,169.56,339.08,168.48Z" transform="translate(6.63 -8.04)"/><rect class="cls-16" x="341.46" y="164.58" width="3.49" height="163.7"/><polygon class="cls-17" points="372.21 342.03 286.21 342.03 265.21 232.03 351.21 232.03 372.21 342.03"/><polygon class="cls-18" points="323.57 230.09 317.07 230.09 316.41 226.65 294.71 226.65 295.37 230.09 288.88 230.09 290.21 237.09 324.9 237.09 323.57 230.09"/><path class="cls-15" d="M398,172.83c-8.3-3.74-17.9-2.48-22.86,6-4.23,7.23-2.31,19.12,6,22.86a70.47,70.47,0,0,1,12.37,7.41l.3.25c10.65,8.58,25.36,24.41,16.63,38.82-6.73,11.11-23.1,15.27-35.51,14.56l10.32,33.6a146.17,146.17,0,0,0,18.05-5.16c18.61-6.25,33.86-16.63,41.17-35.47C457.25,222.72,426.59,185.7,398,172.83Z" transform="translate(6.63 -8.04)"/><path class="cls-6" d="M397.48,168.85c-4.36,19.53-1.16,38.64,10.74,55.67,5.09,7.28-7.89,13.91-13,6.67-14.06-20.12-17.39-42.87-12.26-65.85,1.87-8.36,16.32-4.81,14.47,3.51Z" transform="translate(6.63 -8.04)"/><path class="cls-6" d="M279.14,168.85c4.36,19.53,1.16,38.64-10.74,55.67-5.08,7.28,7.89,13.91,13,6.67,14.06-20.12,17.39-42.87,12.26-65.85-1.87-8.36-16.32-4.81-14.47,3.51Z" transform="translate(6.63 -8.04)"/><path class="cls-19" d="M280.4,194.31A70.33,70.33,0,0,1,258,189.9c-9.58-3.82-17.12-8.83-23.34-17.19-6.55-8.82-8.71-21-9.06-31.67-.35-10.89.4-21.84.37-32.75,0-6.82.21-13.62.49-20.43l-.34-.58a19.41,19.41,0,0,0-4.08,11.2c-.32,7.44-.59,14.87-.57,22.31,0,10.91-.72,21.86-.37,32.75.35,10.72,2.51,22.85,9.06,31.67,6.22,8.36,13.76,13.37,23.34,17.19,7.42,3,15.61,4.15,23.88,4.47A67.25,67.25,0,0,0,280.4,194.31Z" transform="translate(6.63 -8.04)"/><path class="cls-20" d="M233.74,90.64l17.31,1.5-.42-9c4.4-1.39,7.43-4.77,7.24-8.48a76.27,76.27,0,0,1,9-3c2.2-.57,3.21-3.37,2.48-5.35-.83-2.28-3.14-3.05-5.34-2.48a70.17,70.17,0,0,0-6.81,2.2l-.28-3.4a6.49,6.49,0,0,0-.48-2,75.87,75.87,0,0,1,4.1-9.94c2.28-4.88-5.24-8.47-7.52-3.61-1.28,2.74-2.53,5.49-3.58,8.32l-.37-.07c-.39-3.87-.86-7.73-1.48-11.58-.85-5.27-9.16-4.63-8.31.69.59,3.66,1,7.34,1.43,11l-1.61.14-2.73-10.81c-1.31-5.2-9.13-2.3-7.83,2.87.77,3.07,1.55,6.14,2.32,9.2l-.44.18a49.86,49.86,0,0,1-5.48-6.73c-2.88-4.54-9.71.25-6.83,4.78a64.23,64.23,0,0,0,6.58,8,6.65,6.65,0,0,0-.2,2.18l1,11.87c.29,3.54,3.45,6.32,7.67,7.21Z" transform="translate(6.63 -8.04)"/><path class="cls-16" d="M221.29,94c12.16,5.37,26.24,6.32,38.57,1,3.76-1.62,4.57-7.06,2.69-10.26-2.25-3.85-6.51-4.32-10.26-2.7-6.82,3-16.78,1.94-23.43-1-3.74-1.65-8-1.12-10.26,2.7-1.89,3.22-1,8.6,2.69,10.26Z" transform="translate(6.63 -8.04)"/><g class="cls-21"><path class="cls-15" d="M433.21,201.64c7.6,13.85,10.58,29.42,4.86,44.17-7.31,18.83-22.55,29.22-41.17,35.46-4.49,1.51-9.61,3.22-14.9,4.48l3.25,10.57a146.17,146.17,0,0,0,18.05-5.16c18.61-6.25,33.86-16.63,41.17-35.47C451.6,237.3,445.21,217.66,433.21,201.64Z" transform="translate(6.63 -8.04)"/></g><path class="cls-20" d="M380.53,288.4l-1.29-17.32c-2.91.61-5.85,1.15-8.72,1.89.34-.09-4.47-4.87-5.39-5.22-2.64-1-4.95-.06-7.58.25a48.05,48.05,0,0,1-12.46-.19c-3.42-.42-9.15-1.16-12,1.33-2.31,2-1.82,6.33,1.39,7.24,2.91.82,5.83,1.62,8.78,2.2,0,.12,0,.26,0,.37-3.75,1-7.49,2.1-11.18,3.32-5.07,1.69-3.1,9.79,2,8.1,3.53-1.17,7.09-2.21,10.67-3.18l.39,1.57-10.23,4.42c-4.93,2.13-.81,9.38,4.09,7.27l8.71-3.77c.08.14.16.27.25.4a50.21,50.21,0,0,1-5.77,6.5c-4,3.57,1.8,9.54,5.81,6a62.75,62.75,0,0,0,6.8-7.77,6.49,6.49,0,0,0,2.19-.15l11.56-2.86c3.45-.86,5.69-4.42,5.89-8.73Z" transform="translate(6.63 -8.04)"/><path class="cls-16" d="M367.5,263.48c-2.16,13.09.5,27,8.75,37.55,2.52,3.23,8,2.63,10.6,0,3.16-3.15,2.52-7.39,0-10.6-4.57-5.86-6.07-15.8-4.89-23,1.56-9.46-12.9-13.52-14.46-4Z" transform="translate(6.63 -8.04)"/><g class="cls-22"><path class="cls-23" d="M372.81,39.5c-15.65-23.78-70.28-23.32-85.63,0-5.76,8.75-9.61,24.44-4.31,34.05a6.35,6.35,0,0,0,6,3.08c-.38,3.1.06,5.81,2.48,6.81,5.6,2.32,12.52-3.36,17.08-6,12.85-7.36,30.41-7.33,43.21,0,4.56,2.61,11.48,8.29,17.08,6,2.42-1,2.87-3.71,2.48-6.81a6.37,6.37,0,0,0,6-3.08C382.42,63.94,378.58,48.25,372.81,39.5Z" transform="translate(6.63 -8.04)"/></g><path class="cls-16" d="M345.51,17.93A8.51,8.51,0,1,1,337,9.42,8.51,8.51,0,0,1,345.51,17.93Z" transform="translate(6.63 -8.04)"/><path class="cls-15" d="M379.81,32.5c-15.65-23.78-70.28-23.32-85.63,0-5.76,8.75-9.61,24.44-4.31,34.05,1.22,2.22,4.47,3.81,6.95,2.83,5.73-2.26,13.42-3.57,19.93-4.41,3.92-.5,7.88-.73,11.83-.88,2.76-.11,5.81.07,8.42-.81,2.6.88,5.65.7,8.41.81,3.95.15,7.91.38,11.83.88,3.26.42,6.48,1.11,9.69,1.78a67.13,67.13,0,0,1,10.24,2.63c2.49,1,5.73-.61,7-2.83C389.42,56.94,385.58,41.25,379.81,32.5Z" transform="translate(6.63 -8.04)"/><g class="cls-24"><path class="cls-25" d="M306,71.52c0,35.06,13.29,63.48,29.67,63.48s29.67-28.42,29.67-63.48S352,8,335.64,8,306,36.46,306,71.52Z" transform="translate(6.63 -8.04)"/></g><path class="cls-16" d="M374.69,58.05c-15.84-15.06-33.2-17.2-37.25-17.49v-.05l-.44,0-.45,0v.05c-4.05.29-21.4,2.43-37.25,17.49-1.25,3.68-6.8,16-1,18.39,5.6,2.32,12.52-3.36,17.08-6,12.85-7.36,30.41-7.33,43.21,0,4.56,2.61,11.48,8.29,17.08,6C381.49,74,375.94,61.73,374.69,58.05Z" transform="translate(6.63 -8.04)"/><path class="cls-9" d="M384.87,83.5c2.09-2.11-1.16-5.36-3.26-3.26-9.56,9.62-11.64,22.84-13.36,35.84a77.9,77.9,0,0,0-8.55-6.86c-6.13-3.52-14.69-7.59-22.45-7.77h-1.32c-7.75.18-16.31,4.25-22.44,7.77a75.28,75.28,0,0,0-8.42,6.74c-1.73-13-3.82-26.13-13.35-35.72-2.1-2.1-5.35,1.15-3.26,3.26a32.28,32.28,0,0,1,6.19,8.74,64.18,64.18,0,0,1,5.14,18.33c1,6.41,2.33,13.18,2.33,19.68a44,44,0,0,1-1,9.36c6.49,6.88,19.92,11.61,35.45,11.61s28.94-4.73,35.44-11.61a44,44,0,0,1-1-9.36c0-6.33,1.43-13.18,2.41-19.43s2.25-12.77,5.1-18.47A35.1,35.1,0,0,1,384.87,83.5Z" transform="translate(6.63 -8.04)"/><path class="cls-26" d="M346.8,110.58a19,19,0,0,0-5.54-3.9,8.56,8.56,0,0,0-3.88-1h-.54a8.56,8.56,0,0,0-3.88,1,19,19,0,0,0-5.54,3.9" transform="translate(6.63 -8.04)"/><path class="cls-27" d="M337.47,125.78c10.24,0,20,.31,29,.88-6.75-3.07-17.25-5-29-5s-22.29,2-29,5C317.44,126.09,327.23,125.78,337.47,125.78Z" transform="translate(6.63 -8.04)"/><path class="cls-27" d="M337.47,135.84c-10.24,0-20-.31-29-.87,6.75,3.06,17.25,5,29,5s22.29-2,29-5C357.5,135.53,347.71,135.84,337.47,135.84Z" transform="translate(6.63 -8.04)"/><circle class="cls-28" cx="184.13" cy="92.94" r="4.5"/><line class="cls-28" x1="38.13" y1="250.94" x2="48.63" y2="250.94"/><line class="cls-28" x1="43.38" y1="245.69" x2="43.38" y2="256.19"/><rect class="cls-20" x="201.63" y="142.77" width="10.5" height="3"/><rect class="cls-20" x="205.38" y="139.02" width="3" height="10.5"/><circle class="cls-5" cx="426.13" cy="35.44" r="3.94"/><circle class="cls-20" cx="246.19" cy="225.44" r="3.94"/><circle class="cls-5" cx="136.56" cy="142.11" r="3.94"/></g><rect class="cls-20" x="432.63" y="164.77" width="10.5" height="3"/><rect class="cls-20" x="436.38" y="161.02" width="3" height="10.5"/></g></g></svg>